<?xml version="1.0" standalone="no"?>
<!DOCTYPE svg PUBLIC "-//W3C//DTD SVG 20010904//EN"
 "http://www.w3.org/TR/2001/REC-SVG-20010904/DTD/svg10.dtd">
<svg version="1.0" xmlns="http://www.w3.org/2000/svg"
 width="401.000000pt" height="301.000000pt" viewBox="0 0 401.000000 301.000000"
 preserveAspectRatio="xMidYMid meet">

<g transform="translate(0.000000,301.000000) scale(0.100000,-0.100000)"
fill="#000000" stroke="none">
<path d="M1025 2239 c-73 -11 -99 -22 -30 -13 28 4 147 10 265 13 l215 7 -195
1 c-107 0 -222 -3 -255 -8z"/>
<path d="M1528 2233 c12 -2 32 -2 45 0 12 2 2 4 -23 4 -25 0 -35 -2 -22 -4z"/>
<path d="M1638 2223 c6 -2 18 -2 25 0 6 3 1 5 -13 5 -14 0 -19 -2 -12 -5z"/>
<path d="M905 2210 c-3 -5 1 -10 9 -10 8 0 18 5 21 10 3 6 -1 10 -9 10 -8 0
-18 -4 -21 -10z"/>
<path d="M1693 2213 c9 -2 23 -2 30 0 6 3 -1 5 -18 5 -16 0 -22 -2 -12 -5z"/>
<path d="M821 2179 c-70 -34 -154 -110 -195 -176 -33 -54 -78 -188 -73 -216 3
-17 5 -16 6 6 0 16 5 26 10 23 5 -3 12 9 15 27 4 17 8 39 9 47 7 32 19 60 26
60 4 0 7 9 8 20 3 41 139 171 210 202 29 12 53 26 53 30 0 10 4 12 -69 -23z"/>
<path d="M1820 2188 c19 -5 59 -14 88 -20 28 -5 52 -13 52 -16 0 -4 12 -7 28
-8 63 -1 202 -39 210 -57 2 -4 8 -5 12 -2 12 7 140 -27 140 -37 0 -4 10 -8 21
-8 23 0 201 -58 209 -69 3 -3 10 -6 15 -7 9 0 51 -17 115 -46 14 -6 30 -12 35
-13 18 -2 65 -28 65 -36 0 -4 10 -5 23 -1 20 5 21 4 8 -12 -13 -16 -12 -17 12
-11 19 5 37 -1 71 -24 24 -17 47 -31 50 -31 4 0 33 -18 65 -40 32 -22 62 -40
65 -40 11 0 36 -27 36 -39 0 -6 4 -11 10 -11 11 0 30 -64 30 -106 0 -36 -46
-110 -89 -142 -28 -21 -31 -21 -31 -5 0 10 -7 29 -16 41 -9 13 -13 26 -10 29
6 6 -14 18 -96 59 -27 13 -48 31 -48 39 0 15 34 38 43 29 10 -10 77 -14 77 -5
0 13 -83 25 -115 17 -20 -5 -25 -13 -25 -36 0 -28 6 -33 74 -64 78 -36 89 -50
98 -134 3 -21 6 -20 60 23 69 54 90 90 90 160 1 66 -33 129 -89 167 -71 49
-248 146 -313 173 -67 27 -120 50 -155 65 -123 56 -491 165 -709 210 -101 20
-172 26 -106 8z"/>
<path d="M766 2088 c3 -4 9 -8 15 -8 5 0 9 4 9 8 0 5 -7 9 -15 9 -8 0 -12 -4
-9 -9z"/>
<path d="M710 2059 c0 -5 5 -7 10 -4 6 3 10 8 10 11 0 2 -4 4 -10 4 -5 0 -10
-5 -10 -11z"/>
<path d="M735 1860 c4 -6 11 -8 16 -5 14 9 11 15 -7 15 -8 0 -12 -5 -9 -10z"/>
<path d="M804 1849 c-82 -15 -131 -93 -148 -239 -13 -105 -5 -205 20 -258 21
-45 73 -102 93 -102 14 0 14 -2 1 -10 -12 -7 -11 -9 5 -9 168 -3 188 -2 206
15 10 9 19 24 19 33 1 15 2 15 13 0 24 -31 75 -49 139 -49 62 1 112 18 114 39
3 25 6 25 14 1 5 -14 8 69 8 198 1 135 -3 220 -9 217 -5 -4 -10 -16 -10 -28
-1 -15 -3 -17 -6 -5 -6 24 -76 67 -120 74 -32 5 -48 1 -85 -22 -41 -24 -53
-41 -87 -114 -4 -8 -6 -63 -5 -122 l1 -108 -31 -1 c-17 -1 -45 -2 -63 -4 -50
-4 -64 26 -69 151 -5 113 2 174 20 200 10 13 28 16 84 15 39 0 74 4 77 9 11
18 -151 13 -169 -5 -48 -48 -41 -343 8 -377 6 -4 46 -8 89 -8 l77 0 0 -35 c0
-53 -27 -66 -126 -60 -86 5 -113 18 -151 74 -33 48 -46 131 -41 256 5 126 25
184 77 227 37 32 77 41 160 36 34 -1 61 0 61 4 0 17 -91 21 -166 7z m390 -154
c18 -9 42 -33 54 -54 19 -34 22 -54 22 -167 0 -78 -6 -147 -14 -174 -12 -41
-17 -46 -54 -54 -54 -11 -124 0 -158 26 -47 37 -64 91 -64 203 0 85 4 108 23
145 40 80 117 110 191 75z"/>
<path d="M1118 1613 c-13 -3 -38 -49 -38 -69 0 -2 20 -4 45 -4 41 0 45 2 45
24 0 19 -25 60 -33 55 -1 -1 -10 -3 -19 -6z m32 -33 c10 -18 8 -20 -21 -20
-31 0 -32 0 -14 20 10 11 19 20 21 20 2 0 8 -9 14 -20z"/>
<path d="M1085 1408 c4 -24 12 -49 17 -55 13 -16 162 -18 153 -3 -4 6 -30 9
-62 7 -61 -5 -93 14 -93 53 0 18 7 20 80 20 47 0 80 4 80 10 0 6 -37 10 -91
10 l-91 0 7 -42z"/>
<path d="M2350 1841 c0 -5 9 -7 19 -4 10 3 28 0 40 -6 21 -11 21 -17 21 -286
0 -196 3 -276 12 -281 7 -4 8 -3 4 4 -4 7 -3 12 2 12 5 0 7 26 5 58 l-3 57 14
-44 c15 -46 61 -101 83 -101 7 0 13 -4 13 -10 0 -5 23 -10 51 -10 37 0 48 -3
43 -12 -6 -10 -4 -10 7 0 7 6 23 12 36 12 13 0 23 4 23 9 0 5 -24 9 -52 9
-104 -1 -110 0 -148 41 -43 45 -52 78 -51 189 1 107 13 149 55 191 33 33 41
36 96 36 52 0 63 -4 89 -29 38 -37 53 -82 55 -163 1 -54 3 -60 14 -45 7 9 10
26 7 37 -16 59 -17 103 -1 136 l17 34 -21 -24 c-11 -13 -20 -19 -20 -15 0 18
-47 60 -85 77 -46 20 -124 16 -137 -8 -5 -8 -14 -13 -21 -11 -6 1 -9 1 -4 -1
4 -3 -3 -19 -15 -36 -13 -17 -28 -47 -34 -67 -11 -31 -12 -24 -14 70 -1 58 -1
115 0 127 2 33 -29 63 -67 63 -18 0 -33 -4 -33 -9z"/>
<path d="M985 1812 c4 -8 10 -25 14 -40 5 -19 9 -22 13 -11 3 8 -3 26 -14 40
-11 13 -17 18 -13 11z"/>
<path d="M2322 1808 c-1 -10 -7 -18 -12 -18 -7 0 -7 -6 -1 -19 6 -10 10 -54 9
-97 -1 -44 -4 -70 -7 -59 -17 59 -41 84 -95 101 -58 18 -153 13 -140 -8 5 -7
0 -9 -14 -6 -18 5 -22 2 -22 -17 0 -13 -3 -31 -7 -41 -3 -10 10 0 29 22 35 37
39 39 96 39 71 0 110 -23 129 -76 7 -21 12 -99 12 -202 1 -99 5 -166 10 -163
5 4 11 0 14 -6 2 -7 6 -11 8 -8 2 3 2 133 -1 290 -3 157 -6 277 -8 268z m-5
-320 c-3 -8 -6 -5 -6 6 -1 11 2 17 5 13 3 -3 4 -12 1 -19z m0 -180 c-3 -8 -6
-5 -6 6 -1 11 2 17 5 13 3 -3 4 -12 1 -19z"/>
<path d="M1668 1773 c-29 -7 -20 -20 10 -15 32 4 66 -22 58 -44 -6 -17 49 -20
59 -4 4 6 -5 10 -19 10 -14 0 -25 4 -23 9 3 11 -43 51 -57 50 -6 -1 -19 -3
-28 -6z"/>
<path d="M534 1693 c-10 -95 2 -346 21 -418 37 -146 136 -285 246 -346 168
-94 429 -122 754 -80 224 30 381 63 605 128 64 18 261 85 305 103 17 7 39 16
50 21 74 29 219 95 265 119 39 20 48 29 33 30 -12 0 -25 -4 -28 -10 -9 -14
-107 -55 -124 -52 -7 2 -10 -1 -7 -6 3 -5 -13 -15 -34 -22 -22 -7 -40 -17 -40
-22 0 -4 -10 -8 -23 -8 -13 0 -27 -3 -31 -7 -7 -8 -44 -21 -176 -65 -52 -17
-104 -34 -115 -38 -85 -33 -197 -63 -233 -63 -23 0 -38 -3 -32 -7 6 -4 -21
-12 -60 -19 -38 -7 -72 -16 -75 -21 -3 -4 -33 -11 -67 -15 -35 -3 -101 -13
-148 -21 -46 -9 -99 -13 -117 -9 -20 4 -33 2 -33 -5 0 -6 -64 -10 -187 -10
-104 0 -182 4 -175 9 8 4 -11 8 -45 7 -77 -1 -208 38 -234 71 -6 7 -19 13 -28
13 -36 0 -148 127 -189 215 -57 119 -67 191 -64 433 1 89 0 162 -2 162 -3 0
-8 -30 -12 -67z"/>
<path d="M1359 1735 c-1 -5 -1 -14 0 -19 1 -4 -9 -6 -23 -2 -14 3 -28 2 -31
-4 -4 -6 8 -10 29 -10 39 0 49 9 35 30 -5 8 -9 11 -10 5z"/>
<path d="M1616 1724 c-4 -9 -9 -14 -12 -11 -4 3 -15 -4 -26 -16 -13 -15 -21
-18 -24 -9 -3 6 -12 12 -20 12 -17 0 -19 17 -1 23 6 2 -21 3 -62 1 -46 -2 -78
-9 -83 -16 -11 -18 -10 -28 2 -28 6 0 10 4 10 9 0 20 78 23 116 5 57 -27 64
-56 64 -259 0 -110 4 -175 10 -175 6 0 10 62 10 165 0 140 2 165 15 165 13 0
15 -24 15 -152 0 -148 1 -154 25 -182 20 -23 33 -29 69 -30 29 0 51 5 63 17
11 9 23 14 26 10 4 -3 7 98 7 226 0 133 -4 230 -9 227 -10 -6 -20 -76 -11 -76
10 0 1 -339 -10 -360 -23 -42 -114 -36 -137 10 -9 17 -13 76 -13 178 l0 152
-24 0 c-18 0 -25 6 -28 28 -6 45 1 62 28 62 17 0 24 5 24 20 0 24 -15 26 -24
4z"/>
<path d="M1265 1720 c3 -5 8 -10 11 -10 2 0 4 5 4 10 0 6 -5 10 -11 10 -5 0
-7 -4 -4 -10z"/>
<path d="M1961 1712 c-19 -9 -37 -24 -39 -32 -3 -10 0 -9 10 3 7 10 32 21 56
24 23 3 39 9 36 14 -8 13 -25 11 -63 -9z"/>
<path d="M1830 1710 c0 -5 19 -10 42 -10 49 0 45 9 -6 16 -20 2 -36 0 -36 -6z"/>
<path d="M2843 1705 c-18 -8 -33 -18 -33 -24 0 -5 12 -3 28 5 33 17 153 19
170 2 7 -7 12 -22 12 -34 0 -13 5 -26 11 -30 21 -13 -2 60 -24 78 -27 22 -118
23 -164 3z"/>
<path d="M1737 1614 c-1 -1 -1 -66 1 -143 3 -130 4 -141 22 -141 10 0 22 5 25
10 3 6 0 10 -8 10 -28 0 -39 216 -12 244 8 8 15 17 15 20 0 4 -38 4 -43 0z"/>
<path d="M2020 1615 c-1 -5 -2 -12 -2 -15 0 -3 -15 -5 -34 -6 -19 0 -40 -6
-47 -13 -18 -18 -23 -333 -5 -326 10 4 12 33 10 127 -2 91 0 123 10 130 9 7 8
8 -5 4 -15 -5 -17 -2 -11 17 11 37 25 47 63 47 25 0 41 -6 51 -20 15 -21 50
-28 50 -10 0 6 -8 10 -18 10 -19 0 -45 24 -55 50 -3 8 -6 11 -7 5z"/>
<path d="M2128 1609 c-10 -5 -18 -17 -18 -26 0 -14 4 -13 23 5 31 30 46 28 44
-5 -2 -24 -9 -30 -51 -43 -26 -9 -63 -30 -82 -48 -19 -18 -38 -31 -42 -29 -4
3 -8 -18 -10 -47 -3 -53 15 -136 29 -136 4 0 20 -11 35 -25 30 -28 76 -33 119
-13 19 9 28 9 37 0 14 -14 67 -15 88 -2 11 7 1 9 -33 8 -27 0 -53 4 -59 10 -6
6 -18 5 -36 -4 -60 -29 -160 28 -163 94 -4 105 20 136 149 187 39 16 43 20 40
49 -2 25 -8 31 -28 33 -14 2 -33 -2 -42 -8z"/>
<path d="M1411 1597 c-14 -18 -14 -25 -13 -200 1 -86 6 -146 11 -143 5 4 9 76
8 161 0 106 3 159 11 167 6 6 15 9 18 5 3 -3 8 -73 11 -154 6 -181 12 -197 73
-200 43 -1 43 -1 10 6 -61 12 -60 9 -60 177 0 88 -4 164 -10 175 -12 22 -42
25 -59 6z"/>
<path d="M2581 1579 c-6 -18 -11 -34 -11 -35 0 -2 20 -4 45 -4 38 0 45 3 45
19 0 36 -12 51 -40 51 -22 0 -30 -6 -39 -31z m63 -4 c4 -11 -2 -15 -24 -15
-22 0 -28 4 -24 15 4 8 14 15 24 15 10 0 20 -7 24 -15z"/>
<path d="M2790 1472 c0 -6 9 -14 20 -17 11 -3 20 -10 20 -15 0 -5 6 -7 14 -4
7 3 16 -2 20 -11 3 -10 12 -15 19 -12 22 8 50 -19 42 -43 -6 -19 -13 -21 -71
-19 -83 3 -92 -7 -15 -16 85 -10 103 -2 99 43 -3 38 -9 43 -93 79 -22 9 -43
19 -47 21 -5 2 -8 -1 -8 -6z"/>
<path d="M2155 1447 c-36 -20 -40 -27 -43 -65 -4 -48 13 -62 53 -44 25 12 39
56 33 105 l-3 26 -40 -22z m25 -35 c0 -37 -22 -67 -44 -59 -23 9 -20 35 7 63
29 31 37 30 37 -4z"/>
<path d="M2576 1408 c4 -24 11 -49 17 -55 12 -16 117 -18 117 -2 0 6 -17 8
-42 6 -51 -6 -68 5 -68 43 0 19 5 27 18 27 78 -1 132 5 132 13 0 6 -37 10 -90
10 l-90 0 6 -42z"/>
<path d="M2720 1350 c0 -5 5 -10 10 -10 6 0 10 5 10 10 0 6 -4 10 -10 10 -5 0
-10 -4 -10 -10z"/>
<path d="M2746 1306 c-3 -13 -9 -32 -12 -43 -5 -17 -5 -17 9 0 15 18 16 18 27
0 10 -16 11 -15 6 7 -3 14 -6 33 -6 43 0 25 -17 21 -24 -7z"/>
<path d="M1441 1264 c0 -11 3 -14 6 -6 3 7 2 16 -1 19 -3 4 -6 -2 -5 -13z"/>
<path d="M1318 1238 c-16 -4 -8 -6 25 -7 26 -1 47 2 47 7 0 9 -41 9 -72 0z"/>
<path d="M1838 1239 c-12 -8 10 -13 50 -12 6 1 12 -2 12 -6 0 -4 7 -8 15 -8 9
0 14 5 12 11 -5 14 -72 25 -89 15z"/>
<path d="M1945 1240 c3 -5 8 -10 11 -10 2 0 4 5 4 10 0 6 -5 10 -11 10 -5 0
-7 -4 -4 -10z"/>
<path d="M2390 1240 l-35 -7 32 -2 c17 0 35 4 38 9 3 6 5 9 3 9 -2 -1 -19 -5
-38 -9z"/>
<path d="M2040 1210 c0 -5 5 -10 11 -10 5 0 7 5 4 10 -3 6 -8 10 -11 10 -2 0
-4 -4 -4 -10z"/>
<path d="M1168 863 c7 -3 16 -2 19 1 4 3 -2 6 -13 5 -11 0 -14 -3 -6 -6z"/>
</g>
</svg>
