<?xml version="1.0" encoding="UTF-8"?>
<!DOCTYPE svg PUBLIC "-//W3C//DTD SVG 1.1//EN" "http://www.w3.org/Graphics/SVG/1.1/DTD/svg11.dtd">
<!-- Creator: CorelDRAW 2019 (64-Bit) -->
<svg xmlns="http://www.w3.org/2000/svg" xml:space="preserve" width="196.778mm" height="196.779mm" version="1.1" style="shape-rendering:geometricPrecision; text-rendering:geometricPrecision; image-rendering:optimizeQuality; fill-rule:evenodd; clip-rule:evenodd"
viewBox="0 0 196.7716 196.7732"
 xmlns:xlink="http://www.w3.org/1999/xlink"
 xmlns:xodm="http://www.corel.com/coreldraw/odm/2003">
 <defs>
  <style type="text/css">
   <![CDATA[
    .fil0 {fill:#FEFEFE}
    .fil1 {fill:#3E65B0}
   ]]>
  </style>
 </defs>
 <g id="Layer_x0020_1">
  <metadata id="CorelCorpID_0Corel-Layer"/>
  <g id="_817391264">
   <path class="fil0" d="M91.243 4.9947c17.8723,-1.4562 36.1496,2.5029 51.8473,11.1551 26.7671,14.4244 45.7342,42.559 48.4277,72.9249 2.0278,18.7109 -1.9675,37.9928 -11.0707,54.4507 -9.1098,16.5773 -23.3609,30.306 -40.3244,38.7016 -13.3125,6.7128 -28.296,10.1018 -43.2072,9.7743 -20.4239,-0.1725 -40.6455,-7.4798 -56.6339,-20.1623 -13.7589,-10.9161 -24.4018,-25.7088 -30.2288,-42.2918 -9.0852,-25.5014 -6.4094,-54.9804 7.4503,-78.2761 9.305,-16.1488 23.6522,-29.2888 40.4313,-37.3747 10.4289,-4.9883 21.7733,-8.0751 33.3083,-8.9017zm-16.5592 8.9017l0 0c-16.119,4.3523 -31.1677,13.8352 -40.7284,27.6892 -6.4394,9.1084 -10.1437,19.8945 -12.0462,30.811 -0.9039,6.8141 -1.2782,14.2461 2.1285,20.4714 1.5756,3.0918 4.3285,5.4284 5.6841,8.6386 1.2902,2.8486 0.3748,6.7014 -2.4018,8.3239 -2.6044,1.8677 -6.2849,1.1535 -8.6396,-0.7908 -3.3947,-2.663 -4.8337,-7.0092 -5.5591,-11.1119 -1.4329,-9.2397 0.4283,-18.5865 2.7826,-27.5053 -1.8431,0.7672 -1.5754,3.3177 -2.271,4.9348 -4.0257,15.6078 -3.9959,32.2918 0.4161,47.8157 4.1679,14.8289 12.6762,28.5998 24.9602,38.0408 9.2515,7.3196 20.5903,11.4817 32.0658,13.7352 6.9207,1.1655 14.4482,1.6292 20.9351,-1.522 3.2163,-1.6112 5.6243,-4.4185 8.775,-6.1246 2.6524,-1.3791 6.107,-0.9278 8.1813,1.2601 2.3969,2.3908 2.4385,6.487 0.4879,9.1626 -2.1042,2.866 -5.4941,4.4594 -8.8408,5.381 -7.3846,1.8491 -15.1087,1.0167 -22.4989,-0.3273 -2.705,-0.428 -5.2675,-1.629 -8.0328,-1.6225 1.4808,1.4627 3.6509,1.7184 5.5597,2.2892 14.5013,3.5734 29.895,3.5972 44.4201,0.1249 16.7143,-4.0195 32.5304,-13.4257 42.4588,-27.6778 6.4337,-8.8474 9.9768,-19.419 12.1656,-30.0378 1.165,-7.8427 1.7527,-16.7086 -3.0088,-23.546 -2.2184,-3.2643 -5.7802,-6.4037 -5.0663,-10.7618 0.3034,-4.0728 4.8637,-6.6477 8.6093,-5.3214 4.8932,1.5873 7.1812,6.8317 8.1812,11.4812 1.9029,9.6318 0.012,19.5321 -2.5338,28.8608 0.667,-0.1013 1.0763,-0.476 1.2307,-1.118 4.3885,-13.699 5.1493,-28.4741 2.6169,-42.6132 -2.9082,-16.571 -10.5659,-32.7321 -23.3072,-43.9865 -7.647,-6.9746 -17.071,-11.8918 -27.0369,-14.6095 -8.2988,-2.4667 -17.2838,-4.1738 -25.8514,-2.0507 -4.2158,0.9207 -7.4918,3.8759 -10.8684,6.356 -2.8598,2.2062 -7.438,2.3539 -10.0187,-0.3745 -2.3247,-2.4747 -2.1107,-6.5639 -0.107,-9.1688 2.6631,-3.5081 7.0695,-5.1306 11.2673,-5.8862 6.7009,-0.9999 13.5504,-0.3449 20.1618,0.9757 2.6225,0.4509 5.0714,1.6574 7.7414,1.8547 -0.5525,-0.4644 -1.0936,-0.9811 -1.7954,-1.2012 -16.1711,-5.2205 -33.8658,-5.4165 -50.2168,-0.8496z"/>
   <path class="fil0" d="M76.896 47.0438c3.6147,-1.903 8.2347,-2.4734 11.9211,-0.4644 2.949,1.6896 4.1026,5.3453 3.8113,8.5743 -0.5232,6.4096 -3.6213,12.3198 -7.5156,17.3262 -4.2099,5.0898 -9.4001,9.5963 -15.6193,12.0105 0.4756,1.9856 1.9737,4.1018 4.2213,4.0907 3.9361,0.1428 7.349,-2.3428 10.1793,-4.816 2.0332,-1.5459 2.1401,-4.2515 3.0918,-6.4336 1.3851,-3.4128 3.27,-7.0514 6.7067,-8.7756 1.6114,-0.8565 4.0726,-1.023 5.1849,0.6956 1.2125,2.3187 0.1126,4.9763 -1.0528,7.0753 -1.5935,3.0442 -4.1144,5.4284 -6.118,8.1697 -0.7553,2.5447 -0.892,5.2203 -0.9396,7.8604 2.7828,-1.2312 5.2799,-2.9848 7.9019,-4.5069 4.5608,-2.9492 9.2936,-5.6963 13.5267,-9.1089 0.487,-1.6472 -0.1784,-3.4428 -0.101,-5.1551 -0.2615,-8.2883 2.6041,-16.7855 8.2525,-22.9146 3.5142,-3.7054 8.8064,-6.3143 13.9781,-5.0125 3.1042,0.565 5.536,3.0854 6.4097,6.0526 1.1059,4.4771 -0.4282,9.1568 -2.782,12.9675 -4.0549,6.3446 -9.9533,11.1901 -15.9228,15.6493 0.7966,1.9861 1.9324,4.2397 4.078,4.9767 3.0738,-0.5886 6.2021,-1.427 9.3473,-0.8027 2.1056,0.4399 4.6313,1.0703 5.6606,3.1692 0.9516,2.0453 -0.8669,4.1381 -2.735,4.7744 -3.9724,1.2962 -8.1755,0.5649 -12.2305,0.2557 -4.8277,1.1536 -9.0258,4.3463 -12.0344,8.2353 -4.6725,6.1421 -6.1175,14.2701 -5.1012,21.8031 0.9695,6.2492 4.1086,12.5455 9.6266,15.9408 6.2127,3.9777 15.1675,3.1339 20.3167,-2.236 4.8582,-5.0126 6.3922,-12.9919 3.6866,-19.4311 -1.1489,-2.8304 -3.6154,-5.2437 -6.7062,-5.7253 -3.6097,-0.815 -7.8974,1.5337 -8.42,5.3686 -0.5235,2.9491 1.5458,5.3928 3.2936,7.5036 1.3502,1.398 1.5105,3.9777 -0.1661,5.1845 -2.5983,1.7778 -6.2012,0.5302 -8.2706,-1.534 -5.107,-5.0415 -4.9468,-14.1444 -0.0534,-19.2932 6.2189,-7.135 18.6035,-7.272 24.9662,-0.2439 6.8014,7.5331 7.6577,19.6084 2.4264,28.2423 -3.9256,6.7775 -11.0007,11.6718 -18.7771,12.7774 -8.4609,1.2541 -17.6003,-1.427 -23.5461,-7.7004 -11.6295,-11.8436 -11.4455,-32.6713 -0.3509,-44.8063 2.9664,-3.5497 6.8854,-6.0766 10.8156,-8.4194 -0.8502,-1.1475 -1.7422,-2.2654 -2.6466,-3.3771 -7.6344,5.5354 -15.6188,10.5655 -23.8356,15.1854 -1.3915,0.5113 -1.1418,2.1878 -1.3438,3.371 -0.7316,10.1141 -1.5935,20.6549 -6.6236,29.6934 -3.4012,6.3853 -8.5439,12.2364 -15.4413,14.8646 -5.4702,2.0627 -12.0877,2.2468 -17.1063,-1.077 -4.8042,-3.0146 -6.9862,-9.0311 -6.6173,-14.5137 0.7609,-6.9744 4.7267,-13.2711 9.7685,-18.0032 6.9212,-6.3209 15.3107,-10.6905 23.5457,-15.0309 1.6767,-0.9334 3.5021,-1.6409 5.0005,-2.8482 0.5527,-1.5101 0.6358,-3.134 0.7908,-4.7148 -4.2692,2.5806 -9.6619,4.6554 -14.5732,2.6756 -4.0137,-1.5458 -6.5108,-5.3869 -7.7895,-9.3228 -3.7874,-0.4047 -7.5982,-1.9149 -10.0125,-4.971 -4.2095,-5.048 -4.4768,-12.7238 -1.4327,-18.4136 1.0168,-2.052 3.2997,-3.1511 5.5355,-3.0142 0.4337,0.879 1.2483,1.754 0.9511,2.8236 -0.6658,3.6925 -1.9621,7.5276 -0.737,11.2675 0.6061,2.5564 2.7231,4.596 5.3508,4.9468 0.5593,-6.0529 1.7361,-12.1294 4.5845,-17.5698 2.6815,-5.293 6.3438,-10.4237 11.6716,-13.2956zm3.5614 5.9224l0 0c-3.5915,2.4438 -5.7794,6.3505 -7.6701,10.1492 -2.0337,4.2869 -3.6745,8.8945 -3.8588,13.6755 1.3734,-0.6069 2.6695,-1.3977 3.7814,-2.4142 4.4951,-3.9125 8.4251,-8.5739 11.0591,-13.9487 0.9277,-1.9446 1.7304,-4.151 1.2011,-6.3264 -0.6836,-1.7661 -3.0679,-2.2291 -4.5127,-1.1354zm46.4779 1.8667l0 0c-4.1985,4.8878 -6.5039,11.3681 -6.4334,17.8077 4.7336,-3.9065 9.098,-8.4847 12.0405,-13.9131 0.8442,-1.7365 1.9629,-4.5723 -0.1782,-5.8392 -1.9505,-1.0039 -4.1504,0.4698 -5.4289,1.9446zm-63.6497 62.4602l0 0c-4.1256,3.7034 -8.1513,8.021 -9.6491,13.4961 -0.7197,2.9374 -0.8859,6.6482 1.5815,8.8355 2.6045,2.3785 6.5285,1.6709 9.5371,0.5411 5.8031,-2.2356 9.3053,-7.8544 11.6655,-13.3124 2.7528,-6.7784 4.4596,-13.9963 5.1552,-21.2803 -6.5887,3.0451 -12.7423,7.0531 -18.2902,11.7199z"/>
   <path class="fil1" d="M91.2668 0.2748c19.4129,-1.4804 39.2243,3.0558 56.075,12.8004 13.4783,7.7718 25.1325,18.7363 33.5687,31.8226 10.4773,15.9998 16.0186,35.1512 15.8576,54.2725 -0.1248,19.9839 -6.4861,39.8961 -18.1108,56.1704 -11.79,16.6893 -28.9319,29.544 -48.2793,36.1199 -17.183,5.9457 -36.0135,6.8793 -53.7437,2.9081 -18.5926,-4.1442 -35.8651,-13.9251 -49.0764,-27.6417 -14.0026,-14.5027 -23.4801,-33.3806 -26.3758,-53.3523 -2.8479,-17.7898 -0.4933,-36.3464 6.4574,-52.9469 6.4509,-15.4416 16.9573,-29.1291 30.1091,-39.4562 15.245,-12.022 34.1412,-19.3536 53.5183,-20.697zm-0.0238 4.72l0 0c-11.5349,0.8267 -22.8794,3.9134 -33.3088,8.9017 -16.7791,8.0859 -31.1262,21.2259 -40.4315,37.3747 -13.859,23.2957 -16.5348,52.7747 -7.4496,78.2761 5.827,16.5833 16.4699,31.3765 30.2285,42.2926 15.9883,12.6821 36.2099,19.9897 56.6333,20.1619 14.912,0.3276 29.8956,-3.0615 43.2081,-9.7743 16.9622,-8.3952 31.2145,-22.1242 40.3231,-38.7016 9.1044,-16.4579 13.0985,-35.7393 11.072,-54.4507 -2.6935,-30.365 -21.6606,-58.5009 -48.429,-72.9253 -15.6959,-8.6521 -33.9738,-12.6112 -51.846,-11.1551z"/>
   <path class="fil1" d="M74.6838 13.8965c16.351,-4.567 34.0457,-4.371 50.218,0.8496 0.7019,0.2201 1.2426,0.7381 1.7956,1.2012 -2.6696,-0.196 -5.1187,-1.4039 -7.7415,-1.8547 -6.6115,-1.3206 -13.4618,-1.9741 -20.1619,-0.9757 -4.1978,0.7556 -8.6034,2.3781 -11.2673,5.8862 -2.0036,2.6049 -2.2177,6.6955 0.107,9.1688 2.5806,2.7297 7.1589,2.5807 10.0187,0.3745 3.3769,-2.4788 6.6526,-5.4339 10.8684,-6.356 8.5678,-2.1217 17.5521,-0.416 25.8515,2.0507 9.9661,2.7176 19.3899,7.6349 27.0369,14.6095 12.7414,11.2558 20.4005,27.4161 23.3073,43.9869 2.5323,14.139 1.7714,28.914 -2.6171,42.6132 -0.1542,0.6425 -0.5636,1.0167 -1.2306,1.118 2.5458,-9.3283 4.4369,-19.2288 2.5337,-28.8607 -0.9997,-4.6497 -3.2879,-9.8936 -8.1824,-11.4813 -3.7457,-1.3258 -8.3059,1.2487 -8.6078,5.3215 -0.7141,4.3585 2.8464,7.4978 5.066,10.7617 4.7618,6.8379 4.1739,15.7029 3.009,23.546 -2.1889,10.6184 -5.7333,21.1909 -12.1656,30.0383 -9.9285,14.2517 -25.7445,23.6582 -42.4594,27.6774 -14.5255,3.4722 -29.9184,3.4484 -44.4202,-0.1246 -1.9083,-0.5712 -4.0785,-0.8264 -5.5592,-2.2892 2.765,-0.0065 5.3276,1.1951 8.0328,1.6227 7.3906,1.3438 15.1143,2.1759 22.4989,0.3266 3.3469,-0.9216 6.7367,-2.5141 8.8408,-5.3807 1.9501,-2.6754 1.9091,-6.7724 -0.4877,-9.1624 -2.0742,-2.1882 -5.529,-2.6391 -8.1814,-1.2606 -3.1508,1.7066 -5.5589,4.5136 -8.775,6.1251 -6.487,3.1511 -14.0144,2.6871 -20.9356,1.5222 -11.4752,-2.2536 -22.8139,-6.4157 -32.0653,-13.7358 -12.2853,-9.4418 -20.7937,-23.2123 -24.9615,-38.0412 -4.412,-15.5239 -4.4418,-32.2079 -0.4161,-47.8157 0.6957,-1.6172 0.4279,-4.1677 2.271,-4.9348 -2.3543,8.9187 -4.2155,18.2655 -2.7826,27.5053 0.7255,4.1027 2.1644,8.4488 5.5591,11.1119 2.3547,1.9448 6.0352,2.6585 8.6396,0.7908 2.7766,-1.6226 3.692,-5.4753 2.4018,-8.3239 -1.3557,-3.2102 -4.1086,-5.5472 -5.6841,-8.6386 -3.4067,-6.2253 -3.0324,-13.6573 -2.1285,-20.4714 1.9025,-10.9165 5.6068,-21.7025 12.0462,-30.811 9.5606,-13.854 24.6093,-23.3369 40.7284,-27.6892zm2.2121 33.1473l0 0c-5.3278,2.8719 -8.9901,8.0026 -11.6716,13.2942 -2.8483,5.4408 -4.0252,11.5174 -4.5845,17.5703 -2.6277,-0.3504 -4.7448,-2.3899 -5.3508,-4.9467 -1.2252,-3.7398 0.0712,-7.575 0.737,-11.2667 0.2972,-1.071 -0.5174,-1.9446 -0.9511,-2.825 -2.2358,-0.1369 -4.5188,0.9636 -5.5355,3.0142 -3.0441,5.6907 -2.7768,13.3665 1.4327,18.4146 2.4146,3.0561 6.2251,4.5663 10.0125,4.9706 1.2787,3.9363 3.7758,7.7771 7.7895,9.3229 4.9113,1.9801 10.304,-0.0952 14.5732,-2.6757 -0.155,1.5816 -0.2381,3.2049 -0.7908,4.7152 -1.4985,1.2069 -3.3238,1.9144 -5.0005,2.8478 -8.2349,4.3405 -16.6245,8.71 -23.5457,15.031 -5.0418,4.7324 -9.0076,11.0286 -9.7685,18.0031 -0.3689,5.4826 1.8131,11.4994 6.6173,14.5137 5.0178,3.3238 11.636,3.1393 17.1063,1.0769 6.8974,-2.6281 12.0401,-8.4793 15.4413,-14.8646 5.0301,-9.0378 5.892,-19.5796 6.6236,-29.6929 0.202,-1.1832 -0.0477,-2.8598 1.3438,-3.3715 8.2167,-4.6203 16.2019,-9.6494 23.8356,-15.1853 0.9044,1.1121 1.7964,2.2296 2.6466,3.3775 -3.9302,2.3425 -7.8492,4.8694 -10.8156,8.419 -11.0946,12.1354 -11.2787,32.9627 0.3509,44.8067 5.9458,6.2734 15.0847,8.9548 23.5461,7.7005 7.7765,-1.1062 14.8515,-6.0001 18.7771,-12.7776 5.2312,-8.6338 4.375,-20.7092 -2.4264,-28.2422 -6.3627,-7.0281 -18.7473,-6.8911 -24.9662,0.2435 -4.8935,5.1492 -5.0536,14.2522 0.0534,19.2936 2.0694,2.0635 5.6723,3.3119 8.2706,1.534 1.6765,-1.2065 1.5163,-3.7871 0.1661,-5.1849 -1.7478,-2.1105 -3.8171,-4.5542 -3.2936,-7.5031 0.5227,-3.8352 4.8104,-6.1838 8.42,-5.3686 3.0908,0.4815 5.5588,2.8948 6.7062,5.7251 2.7056,6.4394 1.1716,14.4186 -3.6866,19.4313 -5.1491,5.369 -14.104,6.2132 -20.3167,2.2354 -5.518,-3.3946 -8.6573,-9.6913 -9.6266,-15.9402 -1.0163,-7.5336 0.4288,-15.6615 5.1012,-21.8032 3.0095,-3.8892 7.2068,-7.0814 12.0344,-8.2357 4.0551,0.3095 8.2594,1.0409 12.2305,-0.2553 1.8681,-0.6364 3.6853,-2.729 2.735,-4.7748 -1.028,-2.0988 -3.555,-2.7289 -5.6606,-3.1688 -3.1452,-0.6244 -6.2735,0.2139 -9.3473,0.8027 -2.1455,-0.7376 -3.282,-2.9909 -4.078,-4.9767 5.9695,-4.4593 11.8679,-9.3053 15.9228,-15.6491 2.3538,-3.8119 3.8879,-8.4915 2.782,-12.9673 -0.8737,-2.9672 -3.3055,-5.4889 -6.4097,-6.0539 -5.1716,-1.3019 -10.4639,1.3085 -13.9781,5.0125 -5.6484,6.1304 -8.514,14.6268 -8.2525,22.9155 -0.0774,1.7123 0.588,3.5077 0.101,5.1547 -4.2331,3.413 -8.9659,6.1596 -13.5267,9.1088 -2.6219,1.523 -5.119,3.2762 -7.9019,4.5069 0.0476,-2.6395 0.1843,-5.3152 0.9396,-7.8601 2.0036,-2.741 4.5246,-5.1251 6.118,-8.1695 1.1654,-2.099 2.2652,-4.7567 1.0528,-7.0757 -1.1124,-1.718 -3.5736,-1.5517 -5.1849,-0.6958 -3.4367,1.7242 -5.3216,5.3633 -6.7067,8.7762 -0.9517,2.182 -1.0586,4.8872 -3.0918,6.4332 -2.8303,2.4735 -6.2432,4.9585 -10.1793,4.816 -2.2475,0.0119 -3.7457,-2.1046 -4.2213,-4.0903 6.2192,-2.4147 11.4095,-6.9216 15.6193,-12.0105 3.8943,-5.0063 6.9924,-10.9162 7.5156,-17.3258 0.2913,-3.229 -0.8623,-6.8861 -3.8113,-8.5743 -3.6864,-2.009 -8.3064,-1.4387 -11.9211,0.4644z"/>
   <path class="fil1" d="M80.4573 52.9662c1.4448,-1.0938 3.8291,-0.6308 4.5127,1.1354 0.5294,2.1754 -0.2734,4.3818 -1.2011,6.3264 -2.6339,5.3747 -6.564,10.0362 -11.0591,13.9487 -1.1119,1.0166 -2.408,1.8073 -3.7814,2.4142 0.1843,-4.781 1.825,-9.3886 3.8588,-13.6755 1.8906,-3.7987 4.0786,-7.7054 7.6701,-10.1492zm46.4779 1.8667l0 0c1.2786,-1.4749 3.4784,-2.9485 5.4289,-1.9446 2.1411,1.267 1.0224,4.1027 0.1782,5.8392 -2.9425,5.4283 -7.307,10.0066 -12.0405,13.9131 -0.0705,-6.4396 2.2349,-12.9199 6.4334,-17.8077zm-63.6497 62.4602l0 0c5.5479,-4.6677 11.7015,-8.6748 18.2893,-11.719 -0.6957,7.2836 -2.4019,14.5018 -5.1547,21.2798 -2.3607,5.4584 -5.8625,11.0772 -11.6656,13.3126 -3.0086,1.1293 -6.933,1.8373 -9.5369,-0.5408 -2.4674,-2.1882 -2.3009,-5.8982 -1.5818,-8.8354 1.4985,-5.4761 5.5237,-9.7928 9.6497,-13.4971z"/>
  </g>
 </g>
</svg>
