<?xml version="1.0" standalone="no"?>
<!DOCTYPE svg PUBLIC "-//W3C//DTD SVG 20010904//EN"
 "http://www.w3.org/TR/2001/REC-SVG-20010904/DTD/svg10.dtd">
<svg version="1.0" xmlns="http://www.w3.org/2000/svg"
 width="577.000000pt" height="577.000000pt" viewBox="0 0 577.000000 577.000000"
 preserveAspectRatio="xMidYMid meet">

<g transform="translate(0.000000,577.000000) scale(0.100000,-0.100000)"
fill="#000000" stroke="none">
<path d="M2760 3805 c-75 -25 -536 -158 -865 -250 -850 -238 -1233 -351 -1525
-447 -292 -96 -325 -114 -356 -195 -23 -58 -8 -108 45 -156 32 -29 71 -46 213
-92 377 -123 1366 -410 2097 -610 524 -143 545 -144 939 -29 568 166 2122 637
2301 698 80 27 125 62 147 113 19 44 18 69 -7 119 -39 81 23 61 -1269 420
-509 142 -1078 307 -1281 371 -190 60 -224 68 -304 70 -58 1 -106 -3 -135 -12z
m275 -84 c121 -40 542 -163 855 -251 140 -39 309 -86 375 -105 66 -19 284 -79
485 -135 629 -174 881 -249 911 -271 35 -25 45 -59 30 -98 -22 -51 1 -43 -821
-294 -470 -144 -1137 -343 -1460 -437 -80 -23 -199 -58 -265 -78 -110 -33
-130 -36 -240 -35 -122 1 -180 12 -440 84 -38 10 -144 40 -235 65 -531 145
-1116 313 -1540 440 -431 130 -557 174 -591 206 -62 57 -23 119 104 168 201
77 856 271 1752 520 402 112 848 240 854 246 2 2 34 4 70 4 46 0 94 -9 156
-29z"/>
<path d="M3805 3268 c-7 -24 -125 -691 -123 -694 2 -1 31 -6 66 -10 59 -6 64
-5 69 15 7 26 7 26 52 -1 50 -32 158 -32 218 0 110 58 158 135 158 252 0 102
-42 176 -120 218 -36 18 -141 20 -174 2 -13 -6 -25 -9 -28 -7 -2 3 5 51 16
108 12 56 21 108 21 115 0 19 -149 20 -155 2z m239 -332 c44 -18 66 -52 66
-99 0 -78 -51 -137 -120 -137 -72 0 -118 55 -107 127 8 48 34 83 78 105 41 22
41 22 83 4z"/>
<path d="M1610 3201 c-23 -6 -27 -17 -47 -116 -12 -61 -38 -199 -56 -307 l-34
-198 87 0 c101 0 91 -12 111 133 l12 87 94 0 c85 0 94 -2 89 -17 -3 -10 -10
-49 -16 -88 -6 -38 -14 -80 -17 -92 -5 -23 -4 -23 90 -23 l94 0 32 198 c57
360 64 412 57 420 -4 4 -42 7 -84 7 l-77 0 -19 -112 -19 -113 -89 0 c-101 0
-95 -8 -73 107 24 127 26 123 -47 122 -35 -1 -74 -4 -88 -8z"/>
<path d="M3370 3051 c-112 -46 -190 -161 -190 -281 0 -111 54 -176 166 -201
99 -22 227 23 279 99 41 60 35 72 -35 72 -42 0 -69 -6 -92 -20 -64 -39 -141
-24 -161 33 -6 16 6 17 168 17 116 0 176 4 181 11 11 18 7 131 -6 164 -40 103
-190 154 -310 106z m137 -122 c29 -11 43 -26 43 -47 0 -10 -21 -13 -85 -11
-47 1 -85 6 -85 10 0 13 37 43 63 51 32 9 33 9 64 -3z"/>
<path d="M2253 3030 c-177 -102 -203 -378 -43 -460 52 -26 142 -27 193 -1 20
10 37 15 37 10 0 -5 35 -9 78 -9 l79 0 18 128 c9 70 26 174 36 231 10 58 19
108 19 113 0 4 -27 8 -60 8 -43 0 -61 -4 -68 -16 -8 -14 -13 -14 -48 5 -29 16
-57 21 -114 21 -65 0 -82 -4 -127 -30z m194 -136 c45 -50 39 -107 -19 -165
-41 -41 -98 -41 -139 0 -35 35 -36 62 -6 121 40 78 116 99 164 44z"/>
<path d="M2855 3043 c-103 -42 -163 -104 -190 -196 -28 -95 -13 -163 50 -223
94 -90 262 -85 365 12 44 42 80 96 80 123 0 7 -27 11 -74 11 -69 0 -76 -2
-117 -35 -49 -39 -90 -45 -127 -19 -85 59 -11 204 105 204 39 0 46 -3 64 -35
l21 -35 75 0 76 0 -7 43 c-10 62 -50 124 -96 147 -50 25 -166 27 -225 3z"/>
</g>
</svg>
