<?xml version="1.0" encoding="UTF-8"?>
<!DOCTYPE svg PUBLIC "-//W3C//DTD SVG 1.1//EN" "http://www.w3.org/Graphics/SVG/1.1/DTD/svg11.dtd">
<!-- Creator: CorelDRAW 2019 (64-Bit) -->
<svg xmlns="http://www.w3.org/2000/svg" xml:space="preserve" width="189.7mm" height="63.2098mm" version="1.1" style="shape-rendering:geometricPrecision; text-rendering:geometricPrecision; image-rendering:optimizeQuality; fill-rule:evenodd; clip-rule:evenodd"
viewBox="0 0 189.4958 63.1417"
 xmlns:xlink="http://www.w3.org/1999/xlink"
 xmlns:xodm="http://www.corel.com/coreldraw/odm/2003">
 <defs>
  <style type="text/css">
   <![CDATA[
    .fil1 {fill:#E5A200}
    .fil0 {fill:#231D19}
   ]]>
  </style>
 </defs>
 <g id="Layer_x0020_1">
  <metadata id="CorelCorpID_0Corel-Layer"/>
  <g id="_737901232">
   <polygon class="fil0" points="44.7041,6.8376 34.9571,42.4584 29.2931,42.4584 22.4032,16.5846 15.412,42.4584 9.7471,42.4584 -0,6.8376 5.6136,6.8376 12.5538,32.7113 19.5457,6.8376 25.1078,6.8376 32.1504,32.7113 39.0911,6.8376 "/>
   <path class="fil0" d="M47.3032 6.9399l5.6135 -0.4592 0 8.7262 -0.1024 3.266 0.2046 0c2.6023,-0.9699 4.6951,-1.4291 7.2469,-1.4291 4.5423,0 7.6037,2.0421 7.6037,9.8488l0 15.5658 -5.6136 0 0 -15.1065c0,-4.6946 -2.2965,-5.3066 -4.8986,-5.3066 -1.6338,0 -3.0116,0.3574 -4.4405,0.7657l0 19.6474 -5.6135 0 0 -35.5185z"/>
   <path class="fil0" d="M72.766 17.4012l5.6141 0 0 25.0572 -5.6141 0 0 -25.0572zm2.8074 -10.1045l0 0c2.9092,0 3.3685,1.6842 3.3685,3.5724 0,1.8884 -0.6131,3.624 -3.3685,3.624 -2.7559,0 -3.3173,-1.7356 -3.3173,-3.624 0,-1.8883 0.5099,-3.5724 3.3173,-3.5724z"/>
   <path class="fil0" d="M83.1252 17.4012l3.8274 0 0.7658 2.0416 0.3574 0c1.4796,-1.2759 3.8266,-2.399 6.8893,-2.399 0.3569,0 0.7648,0 1.1731,0.0513l0 5.5108c-1.02,-0.1518 -2.0919,-0.3055 -3.1637,-0.3055 -1.5315,0 -2.7557,0.3568 -4.2358,1.0207l0 19.1372 -5.6134 0 0 -25.0572z"/>
   <polygon class="fil0" points="98.5355,42.4584 98.5355,6.9399 104.1489,6.4807 104.1489,42.4584 "/>
   <path class="fil0" d="M149.3618 30.0564c0,-4.7445 -0.7675,-8.6235 -5.2579,-8.6235 -4.5405,0 -5.6648,3.7253 -5.6648,8.6235 0,4.5417 0.9189,8.4721 5.4107,8.4721 4.4905,0 5.5121,-3.7253 5.5121,-8.4721zm-5.3093 -13.0126l0 0c7.9619,0 11.0254,4.695 11.0254,13.0126 0,7.8082 -2.8594,12.9127 -11.1268,12.9127 -8.2676,0 -11.1769,-5.1045 -11.1769,-12.9127 0,-8.3175 3.3175,-13.0126 11.2783,-13.0126z"/>
   <path class="fil0" d="M174.5315 30.0564c0,-4.7445 -0.7662,-8.6235 -5.2553,-8.6235 -4.5431,0 -5.6661,3.7253 -5.6661,8.6235 0,4.5417 0.9189,8.4721 5.4107,8.4721 4.4905,0 5.5108,-3.7253 5.5108,-8.4721zm-5.3067 -13.0126l0 0c7.9607,0 11.0242,4.695 11.0242,13.0126 0,7.8082 -2.8595,12.9127 -11.1269,12.9127 -8.2674,0 -11.1768,-5.1045 -11.1768,-12.9127 0,-8.3175 3.3174,-13.0126 11.2795,-13.0126z"/>
   <polygon class="fil0" points="183.8824,42.4584 183.8824,6.9399 189.4958,6.4807 189.4958,42.4584 "/>
   <path class="fil0" d="M114.3553 37.8146c1.5813,0.0499 2.4499,0.1009 4.0826,0.1009 3.4692,0 5.7668,-1.8369 5.7668,-9.1356 0,-5.0004 -2.0415,-6.3258 -5.7159,-6.3258 -1.4291,0 -2.7559,0.253 -4.1334,0.7138l0 14.6467zm-5.6134 -20.4139l0 0 4.2358 0 0.4592 1.8368c1.6851,-0.9185 4.7959,-2.1937 7.6041,-2.1937 5.1019,0 8.8271,3.7252 8.8271,12.6551 0,8.7785 -3.9298,13.1163 -10.4608,13.1163 -2.4041,0 -5.0519,-0.5101 -5.0519,-0.5101l0 11.4815 -5.6134 0.613 0 -36.999z"/>
   <path class="fil1" d="M136.5328 2.005c-4.1982,-4.8643 -17.519,-0.5887 -32.3839,9.6993l0 2.5929c13.0912,-9.306 24.6315,-13.5993 27.9369,-9.7698 4.127,4.7814 -6.1389,20.4219 -22.9321,34.9142 -16.7944,14.493 -33.7598,22.3513 -37.886,17.5693 -2.1431,-2.4839 -0.3956,-7.8958 4.1262,-14.5527l-2.6285 0c-5.599,8.3497 -7.6976,15.3646 -4.8229,18.6953 5.2404,6.0733 24.8426,-2.2354 43.7782,-18.5756 18.9341,-16.3396 30.0516,-34.5009 24.812,-40.5731z"/>
  </g>
 </g>
</svg>
